
<global>
ampeg_attack=0.001
ampeg_release=1.5
</global>

<group>
color=red
group_label=MainHits_RR1
seq_length=8
seq_position=1

<region>
hivel=103
key=D3
lovel=78
offset=494
sample=Bass_a5_HardMallets_Center_Hits_F_D4_RR1.opus
</region>

<region>
hivel=127
key=D3
lovel=104
offset=508
sample=Bass_a5_HardMallets_Center_Hits_FF_D4_RR1.opus
</region>

<region>
hivel=77
key=D3
lovel=52
offset=482
sample=Bass_a5_HardMallets_Center_Hits_MF_D4_RR1.opus
</region>

<region>
hivel=51
key=D3
lovel=26
offset=947
sample=Bass_a5_HardMallets_Center_Hits_MP_D4_RR1.opus
</region>

<region>
hivel=25
key=D3
lovel=0
offset=3935
sample=Bass_a5_HardMallets_Center_Hits_P_D4_RR1.opus
</region>

<region>
hivel=103
key=E3
lovel=78
offset=2017
sample=Bass_a5_HardMallets_Edge_Hits_F_D4_RR1.opus
</region>

<region>
hivel=127
key=E3
lovel=104
offset=1632
sample=Bass_a5_HardMallets_Edge_Hits_FF_D4_RR1.opus
</region>

<region>
hivel=77
key=E3
lovel=52
offset=6583
sample=Bass_a5_HardMallets_Edge_Hits_MF_D4_RR1.opus
</region>

<region>
hivel=51
key=E3
lovel=26
offset=6257
sample=Bass_a5_HardMallets_Edge_Hits_MP_D4_RR1.opus
</region>

<region>
hivel=25
key=E3
lovel=0
offset=6474
sample=Bass_a5_HardMallets_Edge_Hits_P_D4_RR1.opus
</region>

<region>
hivel=103
key=D#3
lovel=78
offset=492
sample=Bass_a5_HardMallets_Halfway_Hits_F_D4_RR1.opus
</region>

<region>
hivel=127
key=D#3
lovel=104
offset=490
sample=Bass_a5_HardMallets_Halfway_Hits_FF_D4_RR1.opus
</region>

<region>
hivel=77
key=D#3
lovel=52
offset=489
sample=Bass_a5_HardMallets_Halfway_Hits_MF_D4_RR1.opus
</region>

<region>
hivel=51
key=D#3
lovel=26
offset=6323
sample=Bass_a5_HardMallets_Halfway_Hits_MP_D4_RR1.opus
</region>

<region>
hivel=25
key=D#3
lovel=0
offset=6157
sample=Bass_a5_HardMallets_Halfway_Hits_P_D4_RR1.opus
</region>
</group>

<group>
color=red
group_label=MainHits_RR2
seq_length=8
seq_position=2

<region>
hivel=103
key=D3
lovel=78
offset=509
sample=Bass_a5_HardMallets_Center_Hits_F_D4_RR2.opus
</region>

<region>
hivel=127
key=D3
lovel=104
offset=510
sample=Bass_a5_HardMallets_Center_Hits_FF_D4_RR2.opus
</region>

<region>
hivel=77
key=D3
lovel=52
offset=508
sample=Bass_a5_HardMallets_Center_Hits_MF_D4_RR2.opus
</region>

<region>
hivel=51
key=D3
lovel=26
offset=6588
sample=Bass_a5_HardMallets_Center_Hits_MP_D4_RR2.opus
</region>

<region>
hivel=25
key=D3
lovel=0
offset=3202
sample=Bass_a5_HardMallets_Center_Hits_P_D4_RR2.opus
</region>

<region>
hivel=103
key=E3
lovel=78
offset=1813
sample=Bass_a5_HardMallets_Edge_Hits_F_D4_RR2.opus
</region>

<region>
hivel=127
key=E3
lovel=104
offset=1716
sample=Bass_a5_HardMallets_Edge_Hits_FF_D4_RR2.opus
</region>

<region>
hivel=77
key=E3
lovel=52
offset=6025
sample=Bass_a5_HardMallets_Edge_Hits_MF_D4_RR2.opus
</region>

<region>
hivel=51
key=E3
lovel=26
offset=6938
sample=Bass_a5_HardMallets_Edge_Hits_MP_D4_RR2.opus
</region>

<region>
hivel=25
key=E3
lovel=0
offset=7453
sample=Bass_a5_HardMallets_Edge_Hits_P_D4_RR2.opus
</region>

<region>
hivel=103
key=D#3
lovel=78
offset=491
sample=Bass_a5_HardMallets_Halfway_Hits_F_D4_RR2.opus
</region>

<region>
hivel=127
key=D#3
lovel=104
offset=490
sample=Bass_a5_HardMallets_Halfway_Hits_FF_D4_RR2.opus
</region>

<region>
hivel=77
key=D#3
lovel=52
offset=482
sample=Bass_a5_HardMallets_Halfway_Hits_MF_D4_RR2.opus
</region>

<region>
hivel=51
key=D#3
lovel=26
offset=6035
sample=Bass_a5_HardMallets_Halfway_Hits_MP_D4_RR2.opus
</region>

<region>
hivel=25
key=D#3
lovel=0
offset=5814
sample=Bass_a5_HardMallets_Halfway_Hits_P_D4_RR2.opus
</region>
</group>

<group>
color=red
group_label=MainHits_RR3
seq_length=8
seq_position=3

<region>
hivel=103
key=D3
lovel=78
offset=482
sample=Bass_a5_HardMallets_Center_Hits_F_D4_RR3.opus
</region>

<region>
hivel=127
key=D3
lovel=104
offset=507
sample=Bass_a5_HardMallets_Center_Hits_FF_D4_RR3.opus
</region>

<region>
hivel=77
key=D3
lovel=52
offset=482
sample=Bass_a5_HardMallets_Center_Hits_MF_D4_RR3.opus
</region>

<region>
hivel=51
key=D3
lovel=26
offset=7255
sample=Bass_a5_HardMallets_Center_Hits_MP_D4_RR3.opus
</region>

<region>
hivel=25
key=D3
lovel=0
offset=2383
sample=Bass_a5_HardMallets_Center_Hits_P_D4_RR3.opus
</region>

<region>
hivel=103
key=E3
lovel=78
offset=813
sample=Bass_a5_HardMallets_Edge_Hits_F_D4_RR3.opus
</region>

<region>
hivel=127
key=E3
lovel=104
offset=1852
sample=Bass_a5_HardMallets_Edge_Hits_FF_D4_RR3.opus
</region>

<region>
hivel=77
key=E3
lovel=52
offset=6427
sample=Bass_a5_HardMallets_Edge_Hits_MF_D4_RR3.opus
</region>

<region>
hivel=51
key=E3
lovel=26
offset=7492
sample=Bass_a5_HardMallets_Edge_Hits_MP_D4_RR3.opus
</region>

<region>
hivel=25
key=E3
lovel=0
offset=7442
sample=Bass_a5_HardMallets_Edge_Hits_P_D4_RR3.opus
</region>

<region>
hivel=103
key=D#3
lovel=78
offset=492
sample=Bass_a5_HardMallets_Halfway_Hits_F_D4_RR3.opus
</region>

<region>
hivel=127
key=D#3
lovel=104
offset=490
sample=Bass_a5_HardMallets_Halfway_Hits_FF_D4_RR3.opus
</region>

<region>
hivel=77
key=D#3
lovel=52
offset=488
sample=Bass_a5_HardMallets_Halfway_Hits_MF_D4_RR3.opus
</region>

<region>
hivel=51
key=D#3
lovel=26
offset=7588
sample=Bass_a5_HardMallets_Halfway_Hits_MP_D4_RR3.opus
</region>

<region>
hivel=25
key=D#3
lovel=0
offset=5778
sample=Bass_a5_HardMallets_Halfway_Hits_P_D4_RR3.opus
</region>
</group>

<group>
color=red
group_label=MainHits_RR4
seq_length=8
seq_position=4

<region>
hivel=103
key=D3
lovel=78
offset=508
sample=Bass_a5_HardMallets_Center_Hits_F_D4_RR4.opus
</region>

<region>
hivel=127
key=D3
lovel=104
offset=508
sample=Bass_a5_HardMallets_Center_Hits_FF_D4_RR4.opus
</region>

<region>
hivel=77
key=D3
lovel=52
offset=482
sample=Bass_a5_HardMallets_Center_Hits_MF_D4_RR4.opus
</region>

<region>
hivel=51
key=D3
lovel=26
offset=5437
sample=Bass_a5_HardMallets_Center_Hits_MP_D4_RR4.opus
</region>

<region>
hivel=25
key=D3
lovel=0
offset=2717
sample=Bass_a5_HardMallets_Center_Hits_P_D4_RR4.opus
</region>

<region>
hivel=103
key=E3
lovel=78
offset=756
sample=Bass_a5_HardMallets_Edge_Hits_F_D4_RR4.opus
</region>

<region>
hivel=127
key=E3
lovel=104
offset=799
sample=Bass_a5_HardMallets_Edge_Hits_FF_D4_RR4.opus
</region>

<region>
hivel=77
key=E3
lovel=52
offset=5064
sample=Bass_a5_HardMallets_Edge_Hits_MF_D4_RR4.opus
</region>

<region>
hivel=51
key=E3
lovel=26
offset=6778
sample=Bass_a5_HardMallets_Edge_Hits_MP_D4_RR4.opus
</region>

<region>
hivel=25
key=E3
lovel=0
offset=7150
sample=Bass_a5_HardMallets_Edge_Hits_P_D4_RR4.opus
</region>

<region>
hivel=103
key=D#3
lovel=78
offset=492
sample=Bass_a5_HardMallets_Halfway_Hits_F_D4_RR4.opus
</region>

<region>
hivel=127
key=D#3
lovel=104
offset=490
sample=Bass_a5_HardMallets_Halfway_Hits_FF_D4_RR4.opus
</region>

<region>
hivel=77
key=D#3
lovel=52
offset=487
sample=Bass_a5_HardMallets_Halfway_Hits_MF_D4_RR4.opus
</region>

<region>
hivel=51
key=D#3
lovel=26
offset=4345
sample=Bass_a5_HardMallets_Halfway_Hits_MP_D4_RR4.opus
</region>

<region>
hivel=25
key=D#3
lovel=0
offset=7113
sample=Bass_a5_HardMallets_Halfway_Hits_P_D4_RR4.opus
</region>
</group>

<group>
color=red
group_label=MainHits_RR5
seq_length=8
seq_position=5

<region>
hivel=103
key=D3
lovel=78
offset=506
sample=Bass_a5_HardMallets_Center_Hits_F_D4_RR5.opus
</region>

<region>
hivel=127
key=D3
lovel=104
offset=496
sample=Bass_a5_HardMallets_Center_Hits_FF_D4_RR5.opus
</region>

<region>
hivel=77
key=D3
lovel=52
offset=482
sample=Bass_a5_HardMallets_Center_Hits_MF_D4_RR5.opus
</region>

<region>
hivel=51
key=D3
lovel=26
offset=5109
sample=Bass_a5_HardMallets_Center_Hits_MP_D4_RR5.opus
</region>

<region>
hivel=25
key=D3
lovel=0
offset=2600
sample=Bass_a5_HardMallets_Center_Hits_P_D4_RR5.opus
</region>

<region>
hivel=103
key=E3
lovel=78
offset=1793
sample=Bass_a5_HardMallets_Edge_Hits_F_D4_RR5.opus
</region>

<region>
hivel=127
key=E3
lovel=104
offset=1644
sample=Bass_a5_HardMallets_Edge_Hits_FF_D4_RR5.opus
</region>

<region>
hivel=77
key=E3
lovel=52
offset=5061
sample=Bass_a5_HardMallets_Edge_Hits_MF_D4_RR5.opus
</region>

<region>
hivel=51
key=E3
lovel=26
offset=6884
sample=Bass_a5_HardMallets_Edge_Hits_MP_D4_RR5.opus
</region>

<region>
hivel=25
key=E3
lovel=0
offset=6929
sample=Bass_a5_HardMallets_Edge_Hits_P_D4_RR5.opus
</region>

<region>
hivel=103
key=D#3
lovel=78
offset=494
sample=Bass_a5_HardMallets_Halfway_Hits_F_D4_RR5.opus
</region>

<region>
hivel=127
key=D#3
lovel=104
offset=490
sample=Bass_a5_HardMallets_Halfway_Hits_FF_D4_RR5.opus
</region>

<region>
hivel=77
key=D#3
lovel=52
offset=1146
sample=Bass_a5_HardMallets_Halfway_Hits_MF_D4_RR5.opus
</region>

<region>
hivel=51
key=D#3
lovel=26
offset=7694
sample=Bass_a5_HardMallets_Halfway_Hits_MP_D4_RR5.opus
</region>

<region>
hivel=25
key=D#3
lovel=0
offset=6167
sample=Bass_a5_HardMallets_Halfway_Hits_P_D4_RR5.opus
</region>
</group>

<group>
color=red
group_label=MainHits_RR6
seq_length=8
seq_position=6

<region>
hivel=103
key=D3
lovel=78
offset=510
sample=Bass_a5_HardMallets_Center_Hits_F_D4_RR6.opus
</region>

<region>
hivel=127
key=D3
lovel=104
offset=509
sample=Bass_a5_HardMallets_Center_Hits_FF_D4_RR6.opus
</region>

<region>
hivel=77
key=D3
lovel=52
offset=1255
sample=Bass_a5_HardMallets_Center_Hits_MF_D4_RR6.opus
</region>

<region>
hivel=51
key=D3
lovel=26
offset=6135
sample=Bass_a5_HardMallets_Center_Hits_MP_D4_RR6.opus
</region>

<region>
hivel=25
key=D3
lovel=0
offset=2521
sample=Bass_a5_HardMallets_Center_Hits_P_D4_RR6.opus
</region>

<region>
hivel=103
key=E3
lovel=78
offset=1702
sample=Bass_a5_HardMallets_Edge_Hits_F_D4_RR6.opus
</region>

<region>
hivel=127
key=E3
lovel=104
offset=1590
sample=Bass_a5_HardMallets_Edge_Hits_FF_D4_RR6.opus
</region>

<region>
hivel=77
key=E3
lovel=52
offset=5436
sample=Bass_a5_HardMallets_Edge_Hits_MF_D4_RR6.opus
</region>

<region>
hivel=51
key=E3
lovel=26
offset=6515
sample=Bass_a5_HardMallets_Edge_Hits_MP_D4_RR6.opus
</region>

<region>
hivel=25
key=E3
lovel=0
offset=7210
sample=Bass_a5_HardMallets_Edge_Hits_P_D4_RR6.opus
</region>

<region>
hivel=103
key=D#3
lovel=78
offset=492
sample=Bass_a5_HardMallets_Halfway_Hits_F_D4_RR6.opus
</region>

<region>
hivel=127
key=D#3
lovel=104
offset=488
sample=Bass_a5_HardMallets_Halfway_Hits_FF_D4_RR6.opus
</region>

<region>
hivel=77
key=D#3
lovel=52
offset=487
sample=Bass_a5_HardMallets_Halfway_Hits_MF_D4_RR6.opus
</region>

<region>
hivel=51
key=D#3
lovel=26
offset=7474
sample=Bass_a5_HardMallets_Halfway_Hits_MP_D4_RR6.opus
</region>

<region>
hivel=25
key=D#3
lovel=0
offset=5700
sample=Bass_a5_HardMallets_Halfway_Hits_P_D4_RR6.opus
</region>
</group>

<group>
color=red
group_label=MainHits_RR7
seq_length=8
seq_position=7

<region>
hivel=103
key=D3
lovel=78
offset=506
sample=Bass_a5_HardMallets_Center_Hits_F_D4_RR7.opus
</region>

<region>
hivel=127
key=D3
lovel=104
offset=506
sample=Bass_a5_HardMallets_Center_Hits_FF_D4_RR7.opus
</region>

<region>
hivel=77
key=D3
lovel=52
offset=482
sample=Bass_a5_HardMallets_Center_Hits_MF_D4_RR7.opus
</region>

<region>
hivel=51
key=D3
lovel=26
offset=7207
sample=Bass_a5_HardMallets_Center_Hits_MP_D4_RR7.opus
</region>

<region>
hivel=25
key=D3
lovel=0
offset=2455
sample=Bass_a5_HardMallets_Center_Hits_P_D4_RR7.opus
</region>

<region>
hivel=103
key=E3
lovel=78
offset=1652
sample=Bass_a5_HardMallets_Edge_Hits_F_D4_RR7.opus
</region>

<region>
hivel=127
key=E3
lovel=104
offset=1634
sample=Bass_a5_HardMallets_Edge_Hits_FF_D4_RR7.opus
</region>

<region>
hivel=77
key=E3
lovel=52
offset=6155
sample=Bass_a5_HardMallets_Edge_Hits_MF_D4_RR7.opus
</region>

<region>
hivel=51
key=E3
lovel=26
offset=7168
sample=Bass_a5_HardMallets_Edge_Hits_MP_D4_RR7.opus
</region>

<region>
hivel=25
key=E3
lovel=0
offset=6937
sample=Bass_a5_HardMallets_Edge_Hits_P_D4_RR7.opus
</region>

<region>
hivel=103
key=D#3
lovel=78
offset=493
sample=Bass_a5_HardMallets_Halfway_Hits_F_D4_RR7.opus
</region>

<region>
hivel=127
key=D#3
lovel=104
offset=490
sample=Bass_a5_HardMallets_Halfway_Hits_FF_D4_RR7.opus
</region>

<region>
hivel=77
key=D#3
lovel=52
offset=4873
sample=Bass_a5_HardMallets_Halfway_Hits_MF_D4_RR7.opus
</region>

<region>
hivel=51
key=D#3
lovel=26
offset=7314
sample=Bass_a5_HardMallets_Halfway_Hits_MP_D4_RR7.opus
</region>

<region>
hivel=25
key=D#3
lovel=0
offset=6253
sample=Bass_a5_HardMallets_Halfway_Hits_P_D4_RR7.opus
</region>
</group>

<group>
color=red
group_label=MainHIts_RR8
seq_length=8
seq_position=8

<region>
hivel=103
key=D3
lovel=78
offset=499
sample=Bass_a5_HardMallets_Center_Hits_F_D4_RR8.opus
</region>

<region>
hivel=127
key=D3
lovel=104
offset=509
sample=Bass_a5_HardMallets_Center_Hits_FF_D4_RR8.opus
</region>

<region>
hivel=77
key=D3
lovel=52
offset=481
sample=Bass_a5_HardMallets_Center_Hits_MF_D4_RR8.opus
</region>

<region>
hivel=51
key=D3
lovel=26
offset=7782
sample=Bass_a5_HardMallets_Center_Hits_MP_D4_RR8.opus
</region>

<region>
hivel=25
key=D3
lovel=0
offset=3764
sample=Bass_a5_HardMallets_Center_Hits_P_D4_RR8.opus
</region>

<region>
hivel=103
key=E3
lovel=78
offset=1808
sample=Bass_a5_HardMallets_Edge_Hits_F_D4_RR8.opus
</region>

<region>
hivel=127
key=E3
lovel=104
offset=1625
sample=Bass_a5_HardMallets_Edge_Hits_FF_D4_RR8.opus
</region>

<region>
hivel=77
key=E3
lovel=52
offset=5844
sample=Bass_a5_HardMallets_Edge_Hits_MF_D4_RR8.opus
</region>

<region>
hivel=51
key=E3
lovel=26
offset=6952
sample=Bass_a5_HardMallets_Edge_Hits_MP_D4_RR8.opus
</region>

<region>
hivel=25
key=E3
lovel=0
offset=7343
sample=Bass_a5_HardMallets_Edge_Hits_P_D4_RR8.opus
</region>

<region>
hivel=103
key=D#3
lovel=78
offset=491
sample=Bass_a5_HardMallets_Halfway_Hits_F_D4_RR8.opus
</region>

<region>
hivel=127
key=D#3
lovel=104
offset=400
sample=Bass_a5_HardMallets_Halfway_Hits_FF_D4_RR8.opus
</region>

<region>
hivel=77
key=D#3
lovel=52
offset=489
sample=Bass_a5_HardMallets_Halfway_Hits_MF_D4_RR8.opus
</region>

<region>
hivel=51
key=D#3
lovel=26
offset=7049
sample=Bass_a5_HardMallets_Halfway_Hits_MP_D4_RR8.opus
</region>

<region>
hivel=25
key=D#3
lovel=0
offset=7090
sample=Bass_a5_HardMallets_Halfway_Hits_P_D4_RR8.opus
</region>
</group>

<group>
color=green
group_label=AltHits_RR1
seq_length=4
seq_position=1

<region>
hivel=103
key=D4
lovel=78
offset=481
sample=Bass_a5_HardMallets_Center_Buzz_Stroke_F_D4_RR1.opus
</region>

<region>
hivel=127
key=D4
lovel=104
offset=482
sample=Bass_a5_HardMallets_Center_Buzz_Stroke_FF_D4_RR1.opus
</region>

<region>
hivel=77
key=D4
lovel=52
offset=482
sample=Bass_a5_HardMallets_Center_Buzz_Stroke_MF_D4_RR1.opus
</region>

<region>
hivel=51
key=D4
lovel=26
offset=7849
sample=Bass_a5_HardMallets_Center_Buzz_Stroke_MP_D4_RR1.opus
</region>

<region>
hivel=25
key=D4
lovel=0
offset=3484
sample=Bass_a5_HardMallets_Center_Buzz_Stroke_P_D4_RR1.opus
</region>

<region>
hivel=103
key=G4
lovel=78
offset=482
sample=Bass_a5_HardMallets_Center_Dry_Buzz_Stroke_F_D4_RR1.opus
</region>

<region>
hivel=127
key=G4
lovel=104
offset=483
sample=Bass_a5_HardMallets_Center_Dry_Buzz_Stroke_FF_D4_RR1.opus
</region>

<region>
hivel=77
key=G4
lovel=52
offset=3962
sample=Bass_a5_HardMallets_Center_Dry_Buzz_Stroke_MF_D4_RR1.opus
</region>

<region>
hivel=51
key=G4
lovel=26
offset=5917
sample=Bass_a5_HardMallets_Center_Dry_Buzz_Stroke_MP_D4_RR1.opus
</region>

<region>
hivel=25
key=G4
lovel=0
offset=2774
sample=Bass_a5_HardMallets_Center_Dry_Buzz_Stroke_P_D4_RR1.opus
</region>

<region>
hivel=103
key=D5
lovel=78
offset=5250
sample=Bass_a5_HardMallets_Center_Rim Shot_F_D4_RR1.opus
</region>

<region>
hivel=127
key=D5
lovel=104
offset=474
sample=Bass_a5_HardMallets_Center_Rim Shot_FF_D4_RR1.opus
</region>

<region>
hivel=77
key=D5
lovel=52
offset=1575
sample=Bass_a5_HardMallets_Center_Rim Shot_MF_D4_RR1.opus
</region>

<region>
hivel=51
key=D5
lovel=26
offset=7477
sample=Bass_a5_HardMallets_Center_Rim Shot_MP_D4_RR1.opus
</region>

<region>
hivel=25
key=D5
lovel=0
offset=2656
sample=Bass_a5_HardMallets_Center_Rim Shot_P_D4_RR1.opus
</region>

<region>
hivel=103
key=D#5
lovel=78
offset=7841
sample=Bass_a5_HardMallets_Center_Rim_Hit_F_D4_RR1.opus
</region>

<region>
hivel=127
key=D#5
lovel=104
offset=6619
sample=Bass_a5_HardMallets_Center_Rim_Hit_FF_D4_RR1.opus
</region>

<region>
hivel=77
key=D#5
lovel=52
offset=5719
sample=Bass_a5_HardMallets_Center_Rim_Hit_MF_D4_RR1.opus
</region>

<region>
hivel=51
key=D#5
lovel=26
offset=9089
sample=Bass_a5_HardMallets_Center_Rim_Hit_MP_D4_RR1.opus
</region>

<region>
hivel=25
key=D#5
lovel=0
offset=4731
sample=Bass_a5_HardMallets_Center_Rim_Hit_P_D4_RR1.opus
</region>

<region>
hivel=103
key=D6
lovel=78
offset=5531
sample=Bass_a5_HardMallets_Center_Shell_F_D4_RR1.opus
</region>

<region>
hivel=127
key=D6
lovel=104
offset=7744
sample=Bass_a5_HardMallets_Center_Shell_FF_D4_RR1.opus
</region>

<region>
hivel=77
key=D6
lovel=52
offset=4226
sample=Bass_a5_HardMallets_Center_Shell_MF_D4_RR1.opus
</region>

<region>
hivel=51
key=D6
lovel=26
offset=6019
sample=Bass_a5_HardMallets_Center_Shell_MP_D4_RR1.opus
</region>

<region>
hivel=25
key=D6
lovel=0
offset=4452
sample=Bass_a5_HardMallets_Center_Shell_P_D4_RR1.opus
</region>

<region>
hivel=103
key=E4
lovel=78
offset=481
sample=Bass_a5_HardMallets_Edge_Buzz_Stroke_F_D4_RR1.opus
</region>

<region>
hivel=127
key=E4
lovel=104
offset=7234
sample=Bass_a5_HardMallets_Edge_Buzz_Stroke_FF_D4_RR1.opus
</region>

<region>
hivel=77
key=E4
lovel=52
offset=4974
sample=Bass_a5_HardMallets_Edge_Buzz_Stroke_MF_D4_RR1.opus
</region>

<region>
hivel=51
key=E4
lovel=26
offset=7585
sample=Bass_a5_HardMallets_Edge_Buzz_Stroke_MP_D4_RR1.opus
</region>

<region>
hivel=25
key=E4
lovel=0
offset=7268
sample=Bass_a5_HardMallets_Edge_Buzz_Stroke_P_D4_RR1.opus
</region>

<region>
hivel=103
key=A4
lovel=78
offset=481
sample=Bass_a5_HardMallets_Edge_Dry_Buzz_Stroke_F_D4_RR1.opus
</region>

<region>
hivel=127
key=A4
lovel=104
offset=481
sample=Bass_a5_HardMallets_Edge_Dry_Buzz_Stroke_FF_D4_RR1.opus
</region>

<region>
hivel=77
key=A4
lovel=52
offset=3941
sample=Bass_a5_HardMallets_Edge_Dry_Buzz_Stroke_MF_D4_RR1.opus
</region>

<region>
hivel=51
key=A4
lovel=26
offset=6063
sample=Bass_a5_HardMallets_Edge_Dry_Buzz_Stroke_MP_D4_RR1.opus
</region>

<region>
hivel=25
key=A4
lovel=0
offset=6742
sample=Bass_a5_HardMallets_Edge_Dry_Buzz_Stroke_P_D4_RR1.opus
</region>

<region>
hivel=103
key=D#4
lovel=78
offset=489
sample=Bass_a5_HardMallets_Halfway_Buzz_Stroke_F_D4_RR1.opus
</region>

<region>
hivel=127
key=D#4
lovel=104
offset=293
sample=Bass_a5_HardMallets_Halfway_Buzz_Stroke_FF_D4_RR1.opus
</region>

<region>
hivel=77
key=D#4
lovel=52
offset=481
sample=Bass_a5_HardMallets_Halfway_Buzz_Stroke_MF_D4_RR1.opus
</region>

<region>
hivel=51
key=D#4
lovel=26
offset=7903
sample=Bass_a5_HardMallets_Halfway_Buzz_Stroke_MP_D4_RR1.opus
</region>

<region>
hivel=25
key=D#4
lovel=0
offset=6232
sample=Bass_a5_HardMallets_Halfway_Buzz_Stroke_P_D4_RR1.opus
</region>

<region>
hivel=103
key=G#4
lovel=78
offset=491
sample=Bass_a5_HardMallets_Halfway_Dry_Buzz_Stroke_F_D4_RR1.opus
</region>

<region>
hivel=127
key=G#4
lovel=104
offset=488
sample=Bass_a5_HardMallets_Halfway_Dry_Buzz_Stroke_FF_D4_RR1.opus
</region>

<region>
hivel=77
key=G#4
lovel=52
offset=482
sample=Bass_a5_HardMallets_Halfway_Dry_Buzz_Stroke_MF_D4_RR1.opus
</region>

<region>
hivel=51
key=G#4
lovel=26
offset=6733
sample=Bass_a5_HardMallets_Halfway_Dry_Buzz_Stroke_MP_D4_RR1.opus
</region>

<region>
hivel=25
key=G#4
lovel=0
offset=5512
sample=Bass_a5_HardMallets_Halfway_Dry_Buzz_Stroke_P_D4_RR1.opus
</region>
</group>

<group>
color=green
group_label=AltHits_RR2
seq_length=4
seq_position=2

<region>
hivel=103
key=D4
lovel=78
offset=480
sample=Bass_a5_HardMallets_Center_Buzz_Stroke_F_D4_RR2.opus
</region>

<region>
hivel=127
key=D4
lovel=104
offset=508
sample=Bass_a5_HardMallets_Center_Buzz_Stroke_FF_D4_RR2.opus
</region>

<region>
hivel=77
key=D4
lovel=52
offset=482
sample=Bass_a5_HardMallets_Center_Buzz_Stroke_MF_D4_RR2.opus
</region>

<region>
hivel=51
key=D4
lovel=26
offset=5636
sample=Bass_a5_HardMallets_Center_Buzz_Stroke_MP_D4_RR2.opus
</region>

<region>
hivel=25
key=D4
lovel=0
offset=2735
sample=Bass_a5_HardMallets_Center_Buzz_Stroke_P_D4_RR2.opus
</region>

<region>
hivel=103
key=G4
lovel=78
offset=481
sample=Bass_a5_HardMallets_Center_Dry_Buzz_Stroke_F_D4_RR2.opus
</region>

<region>
hivel=127
key=G4
lovel=104
offset=481
sample=Bass_a5_HardMallets_Center_Dry_Buzz_Stroke_FF_D4_RR2.opus
</region>

<region>
hivel=77
key=G4
lovel=52
offset=3574
sample=Bass_a5_HardMallets_Center_Dry_Buzz_Stroke_MF_D4_RR2.opus
</region>

<region>
hivel=51
key=G4
lovel=26
offset=7585
sample=Bass_a5_HardMallets_Center_Dry_Buzz_Stroke_MP_D4_RR2.opus
</region>

<region>
hivel=25
key=G4
lovel=0
offset=1968
sample=Bass_a5_HardMallets_Center_Dry_Buzz_Stroke_P_D4_RR2.opus
</region>

<region>
hivel=103
key=D5
lovel=78
offset=6925
sample=Bass_a5_HardMallets_Center_Rim Shot_F_D4_RR2.opus
</region>

<region>
hivel=127
key=D5
lovel=104
offset=478
sample=Bass_a5_HardMallets_Center_Rim Shot_FF_D4_RR2.opus
</region>

<region>
hivel=77
key=D5
lovel=52
offset=2864
sample=Bass_a5_HardMallets_Center_Rim Shot_MF_D4_RR2.opus
</region>

<region>
hivel=51
key=D5
lovel=26
offset=7055
sample=Bass_a5_HardMallets_Center_Rim Shot_MP_D4_RR2.opus
</region>

<region>
hivel=25
key=D5
lovel=0
offset=2835
sample=Bass_a5_HardMallets_Center_Rim Shot_P_D4_RR2.opus
</region>

<region>
hivel=103
key=D#5
lovel=78
offset=6916
sample=Bass_a5_HardMallets_Center_Rim_Hit_F_D4_RR2.opus
</region>

<region>
hivel=127
key=D#5
lovel=104
offset=6067
sample=Bass_a5_HardMallets_Center_Rim_Hit_FF_D4_RR2.opus
</region>

<region>
hivel=77
key=D#5
lovel=52
offset=5965
sample=Bass_a5_HardMallets_Center_Rim_Hit_MF_D4_RR2.opus
</region>

<region>
hivel=51
key=D#5
lovel=26
offset=6905
sample=Bass_a5_HardMallets_Center_Rim_Hit_MP_D4_RR2.opus
</region>

<region>
hivel=25
key=D#5
lovel=0
offset=3542
sample=Bass_a5_HardMallets_Center_Rim_Hit_P_D4_RR2.opus
</region>

<region>
hivel=103
key=D6
lovel=78
offset=4801
sample=Bass_a5_HardMallets_Center_Shell_F_D4_RR2.opus
</region>

<region>
hivel=127
key=D6
lovel=104
offset=6930
sample=Bass_a5_HardMallets_Center_Shell_FF_D4_RR2.opus
</region>

<region>
hivel=77
key=D6
lovel=52
offset=2459
sample=Bass_a5_HardMallets_Center_Shell_MF_D4_RR2.opus
</region>

<region>
hivel=51
key=D6
lovel=26
offset=8310
sample=Bass_a5_HardMallets_Center_Shell_MP_D4_RR2.opus
</region>

<region>
hivel=25
key=D6
lovel=0
offset=5257
sample=Bass_a5_HardMallets_Center_Shell_P_D4_RR2.opus
</region>

<region>
hivel=103
key=E4
lovel=78
offset=975
sample=Bass_a5_HardMallets_Edge_Buzz_Stroke_F_D4_RR2.opus
</region>

<region>
hivel=127
key=E4
lovel=104
offset=2196
sample=Bass_a5_HardMallets_Edge_Buzz_Stroke_FF_D4_RR2.opus
</region>

<region>
hivel=77
key=E4
lovel=52
offset=4463
sample=Bass_a5_HardMallets_Edge_Buzz_Stroke_MF_D4_RR2.opus
</region>

<region>
hivel=51
key=E4
lovel=26
offset=6037
sample=Bass_a5_HardMallets_Edge_Buzz_Stroke_MP_D4_RR2.opus
</region>

<region>
hivel=25
key=E4
lovel=0
offset=7778
sample=Bass_a5_HardMallets_Edge_Buzz_Stroke_P_D4_RR2.opus
</region>

<region>
hivel=103
key=A4
lovel=78
offset=280
sample=Bass_a5_HardMallets_Edge_Dry_Buzz_Stroke_F_D4_RR2.opus
</region>

<region>
hivel=127
key=A4
lovel=104
offset=1308
sample=Bass_a5_HardMallets_Edge_Dry_Buzz_Stroke_FF_D4_RR2.opus
</region>

<region>
hivel=77
key=A4
lovel=52
offset=3938
sample=Bass_a5_HardMallets_Edge_Dry_Buzz_Stroke_MF_D4_RR2.opus
</region>

<region>
hivel=51
key=A4
lovel=26
offset=5653
sample=Bass_a5_HardMallets_Edge_Dry_Buzz_Stroke_MP_D4_RR2.opus
</region>

<region>
hivel=25
key=A4
lovel=0
offset=7014
sample=Bass_a5_HardMallets_Edge_Dry_Buzz_Stroke_P_D4_RR2.opus
</region>

<region>
hivel=103
key=D#4
lovel=78
offset=492
sample=Bass_a5_HardMallets_Halfway_Buzz_Stroke_F_D4_RR2.opus
</region>

<region>
hivel=127
key=D#4
lovel=104
offset=258
sample=Bass_a5_HardMallets_Halfway_Buzz_Stroke_FF_D4_RR2.opus
</region>

<region>
hivel=77
key=D#4
lovel=52
offset=2098
sample=Bass_a5_HardMallets_Halfway_Buzz_Stroke_MF_D4_RR2.opus
</region>

<region>
hivel=51
key=D#4
lovel=26
offset=7945
sample=Bass_a5_HardMallets_Halfway_Buzz_Stroke_MP_D4_RR2.opus
</region>

<region>
hivel=25
key=D#4
lovel=0
offset=6508
sample=Bass_a5_HardMallets_Halfway_Buzz_Stroke_P_D4_RR2.opus
</region>

<region>
hivel=103
key=G#4
lovel=78
offset=481
sample=Bass_a5_HardMallets_Halfway_Dry_Buzz_Stroke_F_D4_RR2.opus
</region>

<region>
hivel=127
key=G#4
lovel=104
offset=492
sample=Bass_a5_HardMallets_Halfway_Dry_Buzz_Stroke_FF_D4_RR2.opus
</region>

<region>
hivel=77
key=G#4
lovel=52
offset=5644
sample=Bass_a5_HardMallets_Halfway_Dry_Buzz_Stroke_MF_D4_RR2.opus
</region>

<region>
hivel=51
key=G#4
lovel=26
offset=7323
sample=Bass_a5_HardMallets_Halfway_Dry_Buzz_Stroke_MP_D4_RR2.opus
</region>

<region>
hivel=25
key=G#4
lovel=0
offset=6633
sample=Bass_a5_HardMallets_Halfway_Dry_Buzz_Stroke_P_D4_RR2.opus
</region>
</group>

<group>
color=green
group_label=AltHits_RR3
seq_length=4
seq_position=3

<region>
hivel=103
key=D4
lovel=78
offset=482
sample=Bass_a5_HardMallets_Center_Buzz_Stroke_F_D4_RR3.opus
</region>

<region>
hivel=127
key=D4
lovel=104
offset=482
sample=Bass_a5_HardMallets_Center_Buzz_Stroke_FF_D4_RR3.opus
</region>

<region>
hivel=77
key=D4
lovel=52
offset=3648
sample=Bass_a5_HardMallets_Center_Buzz_Stroke_MF_D4_RR3.opus
</region>

<region>
hivel=51
key=D4
lovel=26
offset=6425
sample=Bass_a5_HardMallets_Center_Buzz_Stroke_MP_D4_RR3.opus
</region>

<region>
hivel=25
key=D4
lovel=0
offset=2276
sample=Bass_a5_HardMallets_Center_Buzz_Stroke_P_D4_RR3.opus
</region>

<region>
hivel=103
key=G4
lovel=78
offset=482
sample=Bass_a5_HardMallets_Center_Dry_Buzz_Stroke_F_D4_RR3.opus
</region>

<region>
hivel=127
key=G4
lovel=104
offset=483
sample=Bass_a5_HardMallets_Center_Dry_Buzz_Stroke_FF_D4_RR3.opus
</region>

<region>
hivel=77
key=G4
lovel=52
offset=6426
sample=Bass_a5_HardMallets_Center_Dry_Buzz_Stroke_MF_D4_RR3.opus
</region>

<region>
hivel=51
key=G4
lovel=26
offset=7844
sample=Bass_a5_HardMallets_Center_Dry_Buzz_Stroke_MP_D4_RR3.opus
</region>

<region>
hivel=25
key=G4
lovel=0
offset=2515
sample=Bass_a5_HardMallets_Center_Dry_Buzz_Stroke_P_D4_RR3.opus
</region>

<region>
hivel=103
key=D5
lovel=78
offset=516
sample=Bass_a5_HardMallets_Center_Rim Shot_F_D4_RR3.opus
</region>

<region>
hivel=127
key=D5
lovel=104
offset=494
sample=Bass_a5_HardMallets_Center_Rim Shot_FF_D4_RR3.opus
</region>

<region>
hivel=77
key=D5
lovel=52
offset=7010
sample=Bass_a5_HardMallets_Center_Rim Shot_MF_D4_RR3.opus
</region>

<region>
hivel=51
key=D5
lovel=26
offset=6956
sample=Bass_a5_HardMallets_Center_Rim Shot_MP_D4_RR3.opus
</region>

<region>
hivel=25
key=D5
lovel=0
offset=3362
sample=Bass_a5_HardMallets_Center_Rim Shot_P_D4_RR3.opus
</region>

<region>
hivel=103
key=D#5
lovel=78
offset=7672
sample=Bass_a5_HardMallets_Center_Rim_Hit_F_D4_RR3.opus
</region>

<region>
hivel=127
key=D#5
lovel=104
offset=6914
sample=Bass_a5_HardMallets_Center_Rim_Hit_FF_D4_RR3.opus
</region>

<region>
hivel=77
key=D#5
lovel=52
offset=6938
sample=Bass_a5_HardMallets_Center_Rim_Hit_MF_D4_RR3.opus
</region>

<region>
hivel=51
key=D#5
lovel=26
offset=5813
sample=Bass_a5_HardMallets_Center_Rim_Hit_MP_D4_RR3.opus
</region>

<region>
hivel=25
key=D#5
lovel=0
offset=3239
sample=Bass_a5_HardMallets_Center_Rim_Hit_P_D4_RR3.opus
</region>

<region>
hivel=103
key=D6
lovel=78
offset=6814
sample=Bass_a5_HardMallets_Center_Shell_F_D4_RR3.opus
</region>

<region>
hivel=127
key=D6
lovel=104
offset=6933
sample=Bass_a5_HardMallets_Center_Shell_FF_D4_RR3.opus
</region>

<region>
hivel=77
key=D6
lovel=52
offset=3177
sample=Bass_a5_HardMallets_Center_Shell_MF_D4_RR3.opus
</region>

<region>
hivel=51
key=D6
lovel=26
offset=8680
sample=Bass_a5_HardMallets_Center_Shell_MP_D4_RR3.opus
</region>

<region>
hivel=25
key=D6
lovel=0
offset=5147
sample=Bass_a5_HardMallets_Center_Shell_P_D4_RR3.opus
</region>

<region>
hivel=103
key=E4
lovel=78
offset=910
sample=Bass_a5_HardMallets_Edge_Buzz_Stroke_F_D4_RR3.opus
</region>

<region>
hivel=127
key=E4
lovel=104
offset=856
sample=Bass_a5_HardMallets_Edge_Buzz_Stroke_FF_D4_RR3.opus
</region>

<region>
hivel=77
key=E4
lovel=52
offset=5843
sample=Bass_a5_HardMallets_Edge_Buzz_Stroke_MF_D4_RR3.opus
</region>

<region>
hivel=51
key=E4
lovel=26
offset=6920
sample=Bass_a5_HardMallets_Edge_Buzz_Stroke_MP_D4_RR3.opus
</region>

<region>
hivel=25
key=E4
lovel=0
offset=7653
sample=Bass_a5_HardMallets_Edge_Buzz_Stroke_P_D4_RR3.opus
</region>

<region>
hivel=103
key=A4
lovel=78
offset=286
sample=Bass_a5_HardMallets_Edge_Dry_Buzz_Stroke_F_D4_RR3.opus
</region>

<region>
hivel=127
key=A4
lovel=104
offset=969
sample=Bass_a5_HardMallets_Edge_Dry_Buzz_Stroke_FF_D4_RR3.opus
</region>

<region>
hivel=77
key=A4
lovel=52
offset=4870
sample=Bass_a5_HardMallets_Edge_Dry_Buzz_Stroke_MF_D4_RR3.opus
</region>

<region>
hivel=51
key=A4
lovel=26
offset=6187
sample=Bass_a5_HardMallets_Edge_Dry_Buzz_Stroke_MP_D4_RR3.opus
</region>

<region>
hivel=25
key=A4
lovel=0
offset=6601
sample=Bass_a5_HardMallets_Edge_Dry_Buzz_Stroke_P_D4_RR3.opus
</region>

<region>
hivel=103
key=D#4
lovel=78
offset=489
sample=Bass_a5_HardMallets_Halfway_Buzz_Stroke_F_D4_RR3.opus
</region>

<region>
hivel=127
key=D#4
lovel=104
offset=490
sample=Bass_a5_HardMallets_Halfway_Buzz_Stroke_FF_D4_RR3.opus
</region>

<region>
hivel=77
key=D#4
lovel=52
offset=3512
sample=Bass_a5_HardMallets_Halfway_Buzz_Stroke_MF_D4_RR3.opus
</region>

<region>
hivel=51
key=D#4
lovel=26
offset=1120
sample=Bass_a5_HardMallets_Halfway_Buzz_Stroke_MP_D4_RR3.opus
</region>

<region>
hivel=25
key=D#4
lovel=0
offset=6907
sample=Bass_a5_HardMallets_Halfway_Buzz_Stroke_P_D4_RR3.opus
</region>

<region>
hivel=103
key=G#4
lovel=78
offset=323
sample=Bass_a5_HardMallets_Halfway_Dry_Buzz_Stroke_F_D4_RR3.opus
</region>

<region>
hivel=127
key=G#4
lovel=104
offset=490
sample=Bass_a5_HardMallets_Halfway_Dry_Buzz_Stroke_FF_D4_RR3.opus
</region>

<region>
hivel=77
key=G#4
lovel=52
offset=482
sample=Bass_a5_HardMallets_Halfway_Dry_Buzz_Stroke_MF_D4_RR3.opus
</region>

<region>
hivel=51
key=G#4
lovel=26
offset=7311
sample=Bass_a5_HardMallets_Halfway_Dry_Buzz_Stroke_MP_D4_RR3.opus
</region>

<region>
hivel=25
key=G#4
lovel=0
offset=6477
sample=Bass_a5_HardMallets_Halfway_Dry_Buzz_Stroke_P_D4_RR3.opus
</region>
</group>

<group>
color=green
group_label=AltHits_RR4
seq_length=4
seq_position=4

<region>
hivel=103
key=D4
lovel=78
offset=482
sample=Bass_a5_HardMallets_Center_Buzz_Stroke_F_D4_RR4.opus
</region>

<region>
hivel=127
key=D4
lovel=104
offset=482
sample=Bass_a5_HardMallets_Center_Buzz_Stroke_FF_D4_RR4.opus
</region>

<region>
hivel=77
key=D4
lovel=52
offset=1290
sample=Bass_a5_HardMallets_Center_Buzz_Stroke_MF_D4_RR4.opus
</region>

<region>
hivel=51
key=D4
lovel=26
offset=6925
sample=Bass_a5_HardMallets_Center_Buzz_Stroke_MP_D4_RR4.opus
</region>

<region>
hivel=25
key=D4
lovel=0
offset=2521
sample=Bass_a5_HardMallets_Center_Buzz_Stroke_P_D4_RR4.opus
</region>

<region>
hivel=103
key=G4
lovel=78
offset=512
sample=Bass_a5_HardMallets_Center_Dry_Buzz_Stroke_F_D4_RR4.opus
</region>

<region>
hivel=127
key=G4
lovel=104
offset=481
sample=Bass_a5_HardMallets_Center_Dry_Buzz_Stroke_FF_D4_RR4.opus
</region>

<region>
hivel=77
key=G4
lovel=52
offset=6870
sample=Bass_a5_HardMallets_Center_Dry_Buzz_Stroke_MF_D4_RR4.opus
</region>

<region>
hivel=51
key=G4
lovel=26
offset=7201
sample=Bass_a5_HardMallets_Center_Dry_Buzz_Stroke_MP_D4_RR4.opus
</region>

<region>
hivel=25
key=G4
lovel=0
offset=3410
sample=Bass_a5_HardMallets_Center_Dry_Buzz_Stroke_P_D4_RR4.opus
</region>

<region>
hivel=103
key=D5
lovel=78
offset=6324
sample=Bass_a5_HardMallets_Center_Rim Shot_F_D4_RR4.opus
</region>

<region>
hivel=127
key=D5
lovel=104
offset=4893
sample=Bass_a5_HardMallets_Center_Rim Shot_FF_D4_RR4.opus
</region>

<region>
hivel=77
key=D5
lovel=52
offset=6318
sample=Bass_a5_HardMallets_Center_Rim Shot_MF_D4_RR4.opus
</region>

<region>
hivel=51
key=D5
lovel=26
offset=6912
sample=Bass_a5_HardMallets_Center_Rim Shot_MP_D4_RR4.opus
</region>

<region>
hivel=25
key=D5
lovel=0
offset=2981
sample=Bass_a5_HardMallets_Center_Rim Shot_P_D4_RR4.opus
</region>

<region>
hivel=103
key=D#5
lovel=78
offset=7329
sample=Bass_a5_HardMallets_Center_Rim_Hit_F_D4_RR4.opus
</region>

<region>
hivel=127
key=D#5
lovel=104
offset=7891
sample=Bass_a5_HardMallets_Center_Rim_Hit_FF_D4_RR4.opus
</region>

<region>
hivel=77
key=D#5
lovel=52
offset=7680
sample=Bass_a5_HardMallets_Center_Rim_Hit_MF_D4_RR4.opus
</region>

<region>
hivel=51
key=D#5
lovel=26
offset=8007
sample=Bass_a5_HardMallets_Center_Rim_Hit_MP_D4_RR4.opus
</region>

<region>
hivel=25
key=D#5
lovel=0
offset=2061
sample=Bass_a5_HardMallets_Center_Rim_Hit_P_D4_RR4.opus
</region>

<region>
hivel=103
key=D6
lovel=78
offset=6706
sample=Bass_a5_HardMallets_Center_Shell_F_D4_RR4.opus
</region>

<region>
hivel=127
key=D6
lovel=104
offset=8012
sample=Bass_a5_HardMallets_Center_Shell_FF_D4_RR4.opus
</region>

<region>
hivel=77
key=D6
lovel=52
offset=3251
sample=Bass_a5_HardMallets_Center_Shell_MF_D4_RR4.opus
</region>

<region>
hivel=51
key=D6
lovel=26
offset=8732
sample=Bass_a5_HardMallets_Center_Shell_MP_D4_RR4.opus
</region>

<region>
hivel=25
key=D6
lovel=0
offset=6300
sample=Bass_a5_HardMallets_Center_Shell_P_D4_RR4.opus
</region>

<region>
hivel=103
key=E4
lovel=78
offset=481
sample=Bass_a5_HardMallets_Edge_Buzz_Stroke_F_D4_RR4.opus
</region>

<region>
hivel=127
key=E4
lovel=104
offset=2040
sample=Bass_a5_HardMallets_Edge_Buzz_Stroke_FF_D4_RR4.opus
</region>

<region>
hivel=77
key=E4
lovel=52
offset=5916
sample=Bass_a5_HardMallets_Edge_Buzz_Stroke_MF_D4_RR4.opus
</region>

<region>
hivel=51
key=E4
lovel=26
offset=6816
sample=Bass_a5_HardMallets_Edge_Buzz_Stroke_MP_D4_RR4.opus
</region>

<region>
hivel=25
key=E4
lovel=0
offset=7321
sample=Bass_a5_HardMallets_Edge_Buzz_Stroke_P_D4_RR4.opus
</region>

<region>
hivel=103
key=A4
lovel=78
offset=294
sample=Bass_a5_HardMallets_Edge_Dry_Buzz_Stroke_F_D4_RR4.opus
</region>

<region>
hivel=127
key=A4
lovel=104
offset=2208
sample=Bass_a5_HardMallets_Edge_Dry_Buzz_Stroke_FF_D4_RR4.opus
</region>

<region>
hivel=77
key=A4
lovel=52
offset=6274
sample=Bass_a5_HardMallets_Edge_Dry_Buzz_Stroke_MF_D4_RR4.opus
</region>

<region>
hivel=51
key=A4
lovel=26
offset=5594
sample=Bass_a5_HardMallets_Edge_Dry_Buzz_Stroke_MP_D4_RR4.opus
</region>

<region>
hivel=25
key=A4
lovel=0
offset=7028
sample=Bass_a5_HardMallets_Edge_Dry_Buzz_Stroke_P_D4_RR4.opus
</region>

<region>
hivel=103
key=D#4
lovel=78
offset=356
sample=Bass_a5_HardMallets_Halfway_Buzz_Stroke_F_D4_RR4.opus
</region>

<region>
hivel=127
key=D#4
lovel=104
offset=490
sample=Bass_a5_HardMallets_Halfway_Buzz_Stroke_FF_D4_RR4.opus
</region>

<region>
hivel=77
key=D#4
lovel=52
offset=2552
sample=Bass_a5_HardMallets_Halfway_Buzz_Stroke_MF_D4_RR4.opus
</region>

<region>
hivel=51
key=D#4
lovel=26
offset=7077
sample=Bass_a5_HardMallets_Halfway_Buzz_Stroke_MP_D4_RR4.opus
</region>

<region>
hivel=25
key=D#4
lovel=0
offset=6611
sample=Bass_a5_HardMallets_Halfway_Buzz_Stroke_P_D4_RR4.opus
</region>

<region>
hivel=103
key=G#4
lovel=78
offset=492
sample=Bass_a5_HardMallets_Halfway_Dry_Buzz_Stroke_F_D4_RR4.opus
</region>

<region>
hivel=127
key=G#4
lovel=104
offset=492
sample=Bass_a5_HardMallets_Halfway_Dry_Buzz_Stroke_FF_D4_RR4.opus
</region>

<region>
hivel=77
key=G#4
lovel=52
offset=4811
sample=Bass_a5_HardMallets_Halfway_Dry_Buzz_Stroke_MF_D4_RR4.opus
</region>

<region>
hivel=51
key=G#4
lovel=26
offset=1446
sample=Bass_a5_HardMallets_Halfway_Dry_Buzz_Stroke_MP_D4_RR4.opus
</region>

<region>
hivel=25
key=G#4
lovel=0
offset=5713
sample=Bass_a5_HardMallets_Halfway_Dry_Buzz_Stroke_P_D4_RR4.opus
</region>
</group>

<group>
amp_veltrack=0
ampeg_attack=0.001
ampeg_release=0.05
group_label=Rolls_RR1_0-25
seq_length=2
seq_position=1
xfin_hicc1=25
xfout_hicc1=50
xfout_locc1=25

<region>
hivel=127
key=D2
loop_end=116397
loop_mode=loop_continuous
loop_start=28764
loop_xfade=21631
lovel=1
offset=1398
sample=Bass_a5_HardMallets_Center_Buzz_Roll_P_D4_RR1.opus
</region>

<region>
hivel=127
key=F2
loop_end=116397
loop_mode=loop_continuous
loop_start=26329
loop_xfade=21631
lovel=1
offset=3679
sample=Bass_a5_HardMallets_Center_Rim_Buzz_Roll_P_D4_RR1.opus
</region>

<region>
hivel=127
key=D#2
loop_end=116397
loop_mode=loop_continuous
loop_start=28926
loop_xfade=21631
lovel=1
offset=6069
sample=Bass_a5_HardMallets_Edge_Buzz_Roll_P_D4_RR1.opus
</region>

<region>
hivel=127
key=E2
loop_end=116397
loop_mode=loop_continuous
loop_start=29684
loop_xfade=21631
lovel=1
offset=4728
sample=Bass_a5_HardMallets_Halfway_Buzz_Roll_P_D4_RR1.opus
</region>
</group>

<group>
amp_veltrack=0
ampeg_attack=0.001
ampeg_release=0.05
group_label=Rolls_RR1_26-51
seq_length=2
seq_position=1
xfin_hicc1=51
xfin_locc1=26
xfout_hicc1=76
xfout_locc1=51

<region>
hivel=127
key=D2
loop_end=113102
loop_mode=loop_continuous
loop_start=21019
loop_xfade=21019
lovel=1
offset=483
sample=Bass_a5_HardMallets_Center_Buzz_Roll_MP_D4_RR1.opus
</region>

<region>
hivel=127
key=F2
loop_end=116397
loop_mode=loop_continuous
loop_start=27307
loop_xfade=21631
lovel=1
offset=3733
sample=Bass_a5_HardMallets_Center_Rim_Buzz_Roll_MP_D4_RR1.opus
</region>

<region>
hivel=127
key=D#2
loop_end=116397
loop_mode=loop_continuous
loop_start=29619
loop_xfade=21631
lovel=1
offset=5037
sample=Bass_a5_HardMallets_Edge_Buzz_Roll_MP_D4_RR1.opus
</region>

<region>
hivel=127
key=E2
loop_end=112873
loop_mode=loop_continuous
loop_start=20976
loop_xfade=20976
lovel=1
offset=3700
sample=Bass_a5_HardMallets_Halfway_Buzz_Roll_MP_D4_RR1.opus
</region>
</group>

<group>
amp_veltrack=0
ampeg_attack=0.001
ampeg_release=0.05
group_label=Rolls_RR1_52-77
seq_length=2
seq_position=1
xfin_hicc1=77
xfin_locc1=52
xfout_hicc1=102
xfout_locc1=77

<region>
hivel=127
key=D2
loop_end=113656
loop_mode=loop_continuous
loop_start=21122
loop_xfade=21122
lovel=1
offset=483
sample=Bass_a5_HardMallets_Center_Buzz_Roll_MF_D4_RR1.opus
</region>

<region>
hivel=127
key=F2
loop_end=116397
loop_mode=loop_continuous
loop_start=27804
loop_xfade=21631
lovel=1
offset=3917
sample=Bass_a5_HardMallets_Center_Rim_Buzz_Roll_MF_D4_RR1.opus
</region>

<region>
hivel=127
key=D#2
loop_end=114125
loop_mode=loop_continuous
loop_start=21209
loop_xfade=21209
lovel=1
offset=5189
sample=Bass_a5_HardMallets_Edge_Buzz_Roll_MF_D4_RR1.opus
</region>

<region>
hivel=127
key=E2
loop_end=113283
loop_mode=loop_continuous
loop_start=21052
loop_xfade=21052
lovel=1
offset=482
sample=Bass_a5_HardMallets_Halfway_Buzz_Roll_MF_D4_RR1.opus
</region>
</group>

<group>
amp_veltrack=0
ampeg_attack=0.001
ampeg_release=0.05
group_label=Rolls_RR1_78-103
seq_length=2
seq_position=1
xfin_hicc1=103
xfin_locc1=78
xfout_hicc1=127
xfout_locc1=103

<region>
hivel=127
key=D2
loop_end=113106
loop_mode=loop_continuous
loop_start=21019
loop_xfade=21019
lovel=1
offset=482
sample=Bass_a5_HardMallets_Center_Buzz_Roll_F_D4_RR1.opus
</region>

<region>
hivel=127
key=F2
loop_end=113154
loop_mode=loop_continuous
loop_start=21028
loop_xfade=21028
lovel=1
offset=524
sample=Bass_a5_HardMallets_Center_Rim_Buzz_Roll_F_D4_RR1.opus
</region>

<region>
hivel=127
key=D#2
loop_end=114985
loop_mode=loop_continuous
loop_start=25068
loop_xfade=21369
lovel=1
offset=481
sample=Bass_a5_HardMallets_Edge_Buzz_Roll_F_D4_RR1.opus
</region>

<region>
hivel=127
key=E2
loop_end=113270
loop_mode=loop_continuous
loop_start=21050
loop_xfade=21050
lovel=1
offset=481
sample=Bass_a5_HardMallets_Halfway_Buzz_Roll_F_D4_RR1.opus
</region>
</group>

<group>
amp_veltrack=0
ampeg_attack=0.001
ampeg_release=0.05
group_label=Rolls_RR1_104-127
seq_length=2
seq_position=1
xfin_hicc1=127
xfin_locc1=104
xfout_hicc1=127
xfout_locc1=127

<region>
hivel=127
key=D2
loop_end=113296
loop_mode=loop_continuous
loop_start=21055
loop_xfade=21055
lovel=1
offset=483
sample=Bass_a5_HardMallets_Center_Buzz_Roll_FF_D4_RR1.opus
</region>

<region>
hivel=127
key=F2
loop_end=113421
loop_mode=loop_continuous
loop_start=21078
loop_xfade=21078
lovel=1
offset=378
sample=Bass_a5_HardMallets_Center_Rim_Buzz_Roll_FF_D4_RR1.opus
</region>

<region>
hivel=127
key=D#2
loop_end=113521
loop_mode=loop_continuous
loop_start=21097
loop_xfade=21097
lovel=1
offset=490
sample=Bass_a5_HardMallets_Edge_Buzz_Roll_FF_D4_RR1.opus
</region>

<region>
hivel=127
key=E2
loop_end=114570
loop_mode=loop_continuous
loop_start=21292
loop_xfade=21292
lovel=1
offset=481
sample=Bass_a5_HardMallets_Halfway_Buzz_Roll_FF_D4_RR1.opus
</region>
</group>

<group>
amp_veltrack=0
ampeg_attack=0.001
ampeg_release=0.05
group_label=Rolls_RR2_0-25
seq_length=2
seq_position=2
xfin_hicc1=25
xfout_hicc1=50
xfout_locc1=25

<region>
hivel=127
key=D2
loop_end=116397
loop_mode=loop_continuous
loop_start=27364
loop_xfade=21631
lovel=1
offset=785
sample=Bass_a5_HardMallets_Center_Buzz_Roll_P_D4_RR2.opus
</region>

<region>
hivel=127
key=F2
loop_end=116397
loop_mode=loop_continuous
loop_start=26023
loop_xfade=21631
lovel=1
offset=3322
sample=Bass_a5_HardMallets_Center_Rim_Buzz_Roll_P_D4_RR2.opus
</region>

<region>
hivel=127
key=D#2
loop_end=116397
loop_mode=loop_continuous
loop_start=28435
loop_xfade=21631
lovel=1
offset=6988
sample=Bass_a5_HardMallets_Edge_Buzz_Roll_P_D4_RR2.opus
</region>

<region>
hivel=127
key=E2
loop_end=116397
loop_mode=loop_continuous
loop_start=28555
loop_xfade=21631
lovel=1
offset=4950
sample=Bass_a5_HardMallets_Halfway_Buzz_Roll_P_D4_RR2.opus
</region>
</group>

<group>
amp_veltrack=0
ampeg_attack=0.001
ampeg_release=0.05
group_label=Rolls_RR2_26-51
seq_length=2
seq_position=2
xfin_hicc1=51
xfin_locc1=26
xfout_hicc1=76
xfout_locc1=51

<region>
hivel=127
key=D2
loop_end=112904
loop_mode=loop_continuous
loop_start=20982
loop_xfade=20982
lovel=1
offset=483
sample=Bass_a5_HardMallets_Center_Buzz_Roll_MP_D4_RR2.opus
</region>

<region>
hivel=127
key=F2
loop_end=116397
loop_mode=loop_continuous
loop_start=27664
loop_xfade=21631
lovel=1
offset=6939
sample=Bass_a5_HardMallets_Center_Rim_Buzz_Roll_MP_D4_RR2.opus
</region>

<region>
hivel=127
key=D#2
loop_end=113425
loop_mode=loop_continuous
loop_start=21079
loop_xfade=21079
lovel=1
offset=5985
sample=Bass_a5_HardMallets_Edge_Buzz_Roll_MP_D4_RR2.opus
</region>

<region>
hivel=127
key=E2
loop_end=112540
loop_mode=loop_continuous
loop_start=20914
loop_xfade=20914
lovel=1
offset=6776
sample=Bass_a5_HardMallets_Halfway_Buzz_Roll_MP_D4_RR2.opus
</region>
</group>

<group>
amp_veltrack=0
ampeg_attack=0.001
ampeg_release=0.05
group_label=Rolls_RR2_52-77
seq_length=2
seq_position=2
xfin_hicc1=77
xfin_locc1=52
xfout_hicc1=102
xfout_locc1=77

<region>
hivel=127
key=D2
loop_end=112191
loop_mode=loop_continuous
loop_start=20849
loop_xfade=20849
lovel=1
offset=483
sample=Bass_a5_HardMallets_Center_Buzz_Roll_MF_D4_RR2.opus
</region>

<region>
hivel=127
key=F2
loop_end=115953
loop_mode=loop_continuous
loop_start=21549
loop_xfade=21549
lovel=1
offset=6224
sample=Bass_a5_HardMallets_Center_Rim_Buzz_Roll_MF_D4_RR2.opus
</region>

<region>
hivel=127
key=D#2
loop_end=113900
loop_mode=loop_continuous
loop_start=21167
loop_xfade=21167
lovel=1
offset=481
sample=Bass_a5_HardMallets_Edge_Buzz_Roll_MF_D4_RR2.opus
</region>

<region>
hivel=127
key=E2
loop_end=113291
loop_mode=loop_continuous
loop_start=21054
loop_xfade=21054
lovel=1
offset=481
sample=Bass_a5_HardMallets_Halfway_Buzz_Roll_MF_D4_RR2.opus
</region>
</group>

<group>
amp_veltrack=0
ampeg_attack=0.001
ampeg_release=0.05
group_label=Rolls_RR2_78-103
seq_length=2
seq_position=2
xfin_hicc1=103
xfin_locc1=78
xfout_hicc1=127
xfout_locc1=103

<region>
hivel=127
key=D2
loop_end=113538
loop_mode=loop_continuous
loop_start=21100
loop_xfade=21100
lovel=1
offset=483
sample=Bass_a5_HardMallets_Center_Buzz_Roll_F_D4_RR2.opus
</region>

<region>
hivel=127
key=F2
loop_end=113030
loop_mode=loop_continuous
loop_start=21005
loop_xfade=21005
lovel=1
offset=366
sample=Bass_a5_HardMallets_Center_Rim_Buzz_Roll_F_D4_RR2.opus
</region>

<region>
hivel=127
key=D#2
loop_end=112850
loop_mode=loop_continuous
loop_start=20972
loop_xfade=20972
lovel=1
offset=482
sample=Bass_a5_HardMallets_Edge_Buzz_Roll_F_D4_RR2.opus
</region>

<region>
hivel=127
key=E2
loop_end=113655
loop_mode=loop_continuous
loop_start=21122
loop_xfade=21122
lovel=1
offset=482
sample=Bass_a5_HardMallets_Halfway_Buzz_Roll_F_D4_RR2.opus
</region>
</group>

<group>
amp_veltrack=0
ampeg_attack=0.001
ampeg_release=0.05
group_label=Rolls_RR2_104-127
seq_length=2
seq_position=2
xfin_hicc1=127
xfin_locc1=104
xfout_hicc1=127
xfout_locc1=127

<region>
hivel=127
key=D2
loop_end=113141
loop_mode=loop_continuous
loop_start=21026
loop_xfade=21026
lovel=1
offset=482
sample=Bass_a5_HardMallets_Center_Buzz_Roll_FF_D4_RR2.opus
</region>

<region>
hivel=127
key=F2
loop_end=113784
loop_mode=loop_continuous
loop_start=21145
loop_xfade=21145
lovel=1
offset=345
sample=Bass_a5_HardMallets_Center_Rim_Buzz_Roll_FF_D4_RR2.opus
</region>

<region>
hivel=127
key=D#2
loop_end=112249
loop_mode=loop_continuous
loop_start=20860
loop_xfade=20860
lovel=1
offset=482
sample=Bass_a5_HardMallets_Edge_Buzz_Roll_FF_D4_RR2.opus
</region>

<region>
hivel=127
key=E2
loop_end=114107
loop_mode=loop_continuous
loop_start=21206
loop_xfade=21206
lovel=1
offset=482
sample=Bass_a5_HardMallets_Halfway_Buzz_Roll_FF_D4_RR2.opus
</region>
</group>

<group>
amp_veltrack=0
ampeg_attack=0.01
ampeg_release=0.65
group_label=Rolls_Release_RR1_0-25
seq_length=2
seq_position=1
trigger=release
xfin_hicc1=25
xfout_hicc1=50
xfout_locc1=25

<region>
hivel=127
key=D2
lovel=1
offset=128264
sample=Bass_a5_HardMallets_Center_Buzz_Roll_P_D4_RR1.opus
</region>

<region>
hivel=127
key=F2
lovel=1
offset=127359
sample=Bass_a5_HardMallets_Center_Rim_Buzz_Roll_P_D4_RR1.opus
</region>

<region>
hivel=127
key=D#2
lovel=1
offset=134277
sample=Bass_a5_HardMallets_Edge_Buzz_Roll_P_D4_RR1.opus
</region>

<region>
hivel=127
key=E2
lovel=1
offset=130073
sample=Bass_a5_HardMallets_Halfway_Buzz_Roll_P_D4_RR1.opus
</region>
</group>

<group>
amp_veltrack=0
ampeg_attack=0.01
ampeg_release=0.65
group_label=Rolls_Release_RR1_26-51
seq_length=2
seq_position=1
trigger=release
xfin_hicc1=51
xfin_locc1=26
xfout_hicc1=76
xfout_locc1=51

<region>
hivel=127
key=D2
lovel=1
offset=125448
sample=Bass_a5_HardMallets_Center_Buzz_Roll_MP_D4_RR1.opus
</region>

<region>
hivel=127
key=F2
lovel=1
offset=128110
sample=Bass_a5_HardMallets_Center_Rim_Buzz_Roll_MP_D4_RR1.opus
</region>

<region>
hivel=127
key=D#2
lovel=1
offset=131288
sample=Bass_a5_HardMallets_Edge_Buzz_Roll_MP_D4_RR1.opus
</region>

<region>
hivel=127
key=E2
lovel=1
offset=124594
sample=Bass_a5_HardMallets_Halfway_Buzz_Roll_MP_D4_RR1.opus
</region>
</group>

<group>
amp_veltrack=0
ampeg_attack=0.01
ampeg_release=0.65
group_label=Rolls_Release_RR1_52-77
seq_length=2
seq_position=1
trigger=release
xfin_hicc1=77
xfin_locc1=52
xfout_hicc1=102
xfout_locc1=77

<region>
hivel=127
key=D2
lovel=1
offset=124026
sample=Bass_a5_HardMallets_Center_Buzz_Roll_MF_D4_RR1.opus
</region>

<region>
hivel=127
key=F2
lovel=1
offset=128690
sample=Bass_a5_HardMallets_Center_Rim_Buzz_Roll_MF_D4_RR1.opus
</region>

<region>
hivel=127
key=D#2
lovel=1
offset=126485
sample=Bass_a5_HardMallets_Edge_Buzz_Roll_MF_D4_RR1.opus
</region>

<region>
hivel=127
key=E2
lovel=1
offset=128754
sample=Bass_a5_HardMallets_Halfway_Buzz_Roll_MF_D4_RR1.opus
</region>
</group>

<group>
amp_veltrack=0
ampeg_attack=0.01
ampeg_release=0.65
group_label=Rolls_Release_RR1_78-103
seq_length=2
seq_position=1
trigger=release
xfin_hicc1=103
xfin_locc1=78
xfout_hicc1=127
xfout_locc1=103

<region>
hivel=127
key=D2
lovel=1
offset=127568
sample=Bass_a5_HardMallets_Center_Buzz_Roll_F_D4_RR1.opus
</region>

<region>
hivel=127
key=F2
lovel=1
offset=124792
sample=Bass_a5_HardMallets_Center_Rim_Buzz_Roll_F_D4_RR1.opus
</region>

<region>
hivel=127
key=D#2
lovel=1
offset=130470
sample=Bass_a5_HardMallets_Edge_Buzz_Roll_F_D4_RR1.opus
</region>

<region>
hivel=127
key=E2
lovel=1
offset=127811
sample=Bass_a5_HardMallets_Halfway_Buzz_Roll_F_D4_RR1.opus
</region>
</group>

<group>
amp_veltrack=0
ampeg_attack=0.01
ampeg_release=0.65
group_label=Rolls_Release_RR1_104-127
seq_length=2
seq_position=1
trigger=release
xfin_hicc1=127
xfin_locc1=104
xfout_hicc1=127
xfout_locc1=127

<region>
hivel=127
key=D2
lovel=1
offset=127306
sample=Bass_a5_HardMallets_Center_Buzz_Roll_FF_D4_RR1.opus
</region>

<region>
hivel=127
key=F2
lovel=1
offset=123825
sample=Bass_a5_HardMallets_Center_Rim_Buzz_Roll_FF_D4_RR1.opus
</region>

<region>
hivel=127
key=D#2
lovel=1
offset=128257
sample=Bass_a5_HardMallets_Edge_Buzz_Roll_FF_D4_RR1.opus
</region>

<region>
hivel=127
key=E2
lovel=1
offset=129794
sample=Bass_a5_HardMallets_Halfway_Buzz_Roll_FF_D4_RR1.opus
</region>
</group>

<group>
amp_veltrack=0
ampeg_attack=0.01
ampeg_release=0.65
group_label=Rolls_Release_RR2_0-25
seq_length=2
seq_position=2
trigger=release
xfin_hicc1=25
xfout_hicc1=50
xfout_locc1=25

<region>
hivel=127
key=D2
lovel=1
offset=129499
sample=Bass_a5_HardMallets_Center_Buzz_Roll_P_D4_RR2.opus
</region>

<region>
hivel=127
key=F2
lovel=1
offset=128265
sample=Bass_a5_HardMallets_Center_Rim_Buzz_Roll_P_D4_RR2.opus
</region>

<region>
hivel=127
key=D#2
lovel=1
offset=133206
sample=Bass_a5_HardMallets_Edge_Buzz_Roll_P_D4_RR2.opus
</region>

<region>
hivel=127
key=E2
lovel=1
offset=131300
sample=Bass_a5_HardMallets_Halfway_Buzz_Roll_P_D4_RR2.opus
</region>
</group>

<group>
amp_veltrack=0
ampeg_attack=0.01
ampeg_release=0.65
group_label=Rolls_Release_RR2_26-51
seq_length=2
seq_position=2
trigger=release
xfin_hicc1=51
xfin_locc1=26
xfout_hicc1=76
xfout_locc1=51

<region>
hivel=127
key=D2
lovel=1
offset=124968
sample=Bass_a5_HardMallets_Center_Buzz_Roll_MP_D4_RR2.opus
</region>

<region>
hivel=127
key=F2
lovel=1
offset=128971
sample=Bass_a5_HardMallets_Center_Rim_Buzz_Roll_MP_D4_RR2.opus
</region>

<region>
hivel=127
key=D#2
lovel=1
offset=128295
sample=Bass_a5_HardMallets_Edge_Buzz_Roll_MP_D4_RR2.opus
</region>

<region>
hivel=127
key=E2
lovel=1
offset=124275
sample=Bass_a5_HardMallets_Halfway_Buzz_Roll_MP_D4_RR2.opus
</region>
</group>

<group>
amp_veltrack=0
ampeg_attack=0.01
ampeg_release=0.65
group_label=Rolls_Release_RR2_52-77
seq_length=2
seq_position=2
trigger=release
xfin_hicc1=77
xfin_locc1=52
xfout_hicc1=102
xfout_locc1=77

<region>
hivel=127
key=D2
lovel=1
offset=123198
sample=Bass_a5_HardMallets_Center_Buzz_Roll_MF_D4_RR2.opus
</region>

<region>
hivel=127
key=F2
lovel=1
offset=128164
sample=Bass_a5_HardMallets_Center_Rim_Buzz_Roll_MF_D4_RR2.opus
</region>

<region>
hivel=127
key=D#2
lovel=1
offset=126474
sample=Bass_a5_HardMallets_Edge_Buzz_Roll_MF_D4_RR2.opus
</region>

<region>
hivel=127
key=E2
lovel=1
offset=128184
sample=Bass_a5_HardMallets_Halfway_Buzz_Roll_MF_D4_RR2.opus
</region>
</group>

<group>
amp_veltrack=0
ampeg_attack=0.01
ampeg_release=0.65
group_label=Rolls_Release_RR2_78-103
seq_length=2
seq_position=2
trigger=release
xfin_hicc1=103
xfin_locc1=78
xfout_hicc1=127
xfout_locc1=103

<region>
hivel=127
key=D2
lovel=1
offset=128637
sample=Bass_a5_HardMallets_Center_Buzz_Roll_F_D4_RR2.opus
</region>

<region>
hivel=127
key=F2
lovel=1
offset=123840
sample=Bass_a5_HardMallets_Center_Rim_Buzz_Roll_F_D4_RR2.opus
</region>

<region>
hivel=127
key=D#2
lovel=1
offset=123574
sample=Bass_a5_HardMallets_Edge_Buzz_Roll_F_D4_RR2.opus
</region>

<region>
hivel=127
key=E2
lovel=1
offset=129881
sample=Bass_a5_HardMallets_Halfway_Buzz_Roll_F_D4_RR2.opus
</region>
</group>

<group>
amp_veltrack=0
ampeg_attack=0.01
ampeg_release=0.65
group_label=Rolls_Release_RR2_104-127
seq_length=2
seq_position=2
trigger=release
xfin_hicc1=127
xfin_locc1=104
xfout_hicc1=127
xfout_locc1=127

<region>
hivel=127
key=D2
lovel=1
offset=128399
sample=Bass_a5_HardMallets_Center_Buzz_Roll_FF_D4_RR2.opus
</region>

<region>
hivel=127
key=F2
lovel=1
offset=124307
sample=Bass_a5_HardMallets_Center_Rim_Buzz_Roll_FF_D4_RR2.opus
</region>

<region>
hivel=127
key=D#2
lovel=1
offset=126725
sample=Bass_a5_HardMallets_Edge_Buzz_Roll_FF_D4_RR2.opus
</region>

<region>
hivel=127
key=E2
lovel=1
offset=128599
sample=Bass_a5_HardMallets_Halfway_Buzz_Roll_FF_D4_RR2.opus
</region>
</group>